<svg width="120" height="450" viewBox="0 0 120 450" fill="none" xmlns="http://www.w3.org/2000/svg">
<g clip-path="url(#clip0)">
<g clip-path="url(#clip1)">
<circle cx="2.99207" cy="3.34436" r="2.5" fill="#2D9CDB"/>
<circle cx="16.9921" cy="3.34436" r="2.5" fill="#2D9CDB"/>
<circle cx="30.9921" cy="3.34436" r="2.5" fill="#2D9CDB"/>
<circle cx="44.9921" cy="3.34436" r="2.5" fill="#2D9CDB"/>
<circle cx="58.9921" cy="3.34436" r="2.5" fill="#2D9CDB"/>
<circle cx="72.9921" cy="3.34436" r="2.5" fill="#2D9CDB"/>
<circle cx="86.9921" cy="3.34436" r="2.5" fill="#2D9CDB"/>
<circle cx="100.992" cy="3.34436" r="2.5" fill="#2D9CDB"/>
<circle cx="114.992" cy="3.34436" r="2.5" fill="#2D9CDB"/>
</g>
<g clip-path="url(#clip2)">
<circle cx="2.99207" cy="17.3444" r="2.5" fill="#2D9CDB"/>
<circle cx="16.9921" cy="17.3444" r="2.5" fill="#2D9CDB"/>
<circle cx="30.9921" cy="17.3444" r="2.5" fill="#2D9CDB"/>
<circle cx="44.9921" cy="17.3444" r="2.5" fill="#2D9CDB"/>
<circle cx="58.9921" cy="17.3444" r="2.5" fill="#2D9CDB"/>
<circle cx="72.9921" cy="17.3444" r="2.5" fill="#2D9CDB"/>
<circle cx="86.9921" cy="17.3444" r="2.5" fill="#2D9CDB"/>
<circle cx="100.992" cy="17.3444" r="2.5" fill="#2D9CDB"/>
<circle cx="114.992" cy="17.3444" r="2.5" fill="#2D9CDB"/>
</g>
<g clip-path="url(#clip3)">
<circle cx="2.99207" cy="31.3444" r="2.5" fill="#2D9CDB"/>
<circle cx="16.9921" cy="31.3444" r="2.5" fill="#2D9CDB"/>
<circle cx="30.9921" cy="31.3444" r="2.5" fill="#2D9CDB"/>
<circle cx="44.9921" cy="31.3444" r="2.5" fill="#2D9CDB"/>
<circle cx="58.9921" cy="31.3444" r="2.5" fill="#2D9CDB"/>
<circle cx="72.9921" cy="31.3444" r="2.5" fill="#2D9CDB"/>
<circle cx="86.9921" cy="31.3444" r="2.5" fill="#2D9CDB"/>
<circle cx="100.992" cy="31.3444" r="2.5" fill="#2D9CDB"/>
<circle cx="114.992" cy="31.3444" r="2.5" fill="#2D9CDB"/>
</g>
<g clip-path="url(#clip4)">
<circle cx="2.99207" cy="45.3444" r="2.5" fill="#2D9CDB"/>
<circle cx="16.9921" cy="45.3444" r="2.5" fill="#2D9CDB"/>
<circle cx="30.9921" cy="45.3444" r="2.5" fill="#2D9CDB"/>
<circle cx="44.9921" cy="45.3444" r="2.5" fill="#2D9CDB"/>
<circle cx="58.9921" cy="45.3444" r="2.5" fill="#2D9CDB"/>
<circle cx="72.9921" cy="45.3444" r="2.5" fill="#2D9CDB"/>
<circle cx="86.9921" cy="45.3444" r="2.5" fill="#2D9CDB"/>
<circle cx="100.992" cy="45.3444" r="2.5" fill="#2D9CDB"/>
<circle cx="114.992" cy="45.3444" r="2.5" fill="#2D9CDB"/>
</g>
<g clip-path="url(#clip5)">
<circle cx="2.99207" cy="59.3444" r="2.5" fill="#2D9CDB"/>
<circle cx="16.9921" cy="59.3444" r="2.5" fill="#2D9CDB"/>
<circle cx="30.9921" cy="59.3444" r="2.5" fill="#2D9CDB"/>
<circle cx="44.9921" cy="59.3444" r="2.5" fill="#2D9CDB"/>
<circle cx="58.9921" cy="59.3444" r="2.5" fill="#2D9CDB"/>
<circle cx="72.9921" cy="59.3444" r="2.5" fill="#2D9CDB"/>
<circle cx="86.9921" cy="59.3444" r="2.5" fill="#2D9CDB"/>
<circle cx="100.992" cy="59.3444" r="2.5" fill="#2D9CDB"/>
<circle cx="114.992" cy="59.3444" r="2.5" fill="#2D9CDB"/>
</g>
<g clip-path="url(#clip6)">
<circle cx="2.99207" cy="73.3444" r="2.5" fill="#2D9CDB"/>
<circle cx="16.9921" cy="73.3444" r="2.5" fill="#2D9CDB"/>
<circle cx="30.9921" cy="73.3444" r="2.5" fill="#2D9CDB"/>
<circle cx="44.9921" cy="73.3444" r="2.5" fill="#2D9CDB"/>
<circle cx="58.9921" cy="73.3444" r="2.5" fill="#2D9CDB"/>
<circle cx="72.9921" cy="73.3444" r="2.5" fill="#2D9CDB"/>
<circle cx="86.9921" cy="73.3444" r="2.5" fill="#2D9CDB"/>
<circle cx="100.992" cy="73.3444" r="2.5" fill="#2D9CDB"/>
<circle cx="114.992" cy="73.3444" r="2.5" fill="#2D9CDB"/>
</g>
<g clip-path="url(#clip7)">
<circle cx="2.99207" cy="87.3444" r="2.5" fill="#2D9CDB"/>
<circle cx="16.9921" cy="87.3444" r="2.5" fill="#2D9CDB"/>
<circle cx="30.9921" cy="87.3444" r="2.5" fill="#2D9CDB"/>
<circle cx="44.9921" cy="87.3444" r="2.5" fill="#2D9CDB"/>
<circle cx="58.9921" cy="87.3444" r="2.5" fill="#2D9CDB"/>
<circle cx="72.9921" cy="87.3444" r="2.5" fill="#2D9CDB"/>
<circle cx="86.9921" cy="87.3444" r="2.5" fill="#2D9CDB"/>
<circle cx="100.992" cy="87.3444" r="2.5" fill="#2D9CDB"/>
<circle cx="114.992" cy="87.3444" r="2.5" fill="#2D9CDB"/>
</g>
<g clip-path="url(#clip8)">
<circle cx="2.99207" cy="101.344" r="2.5" fill="#2D9CDB"/>
<circle cx="16.9921" cy="101.344" r="2.5" fill="#2D9CDB"/>
<circle cx="30.9921" cy="101.344" r="2.5" fill="#2D9CDB"/>
<circle cx="44.9921" cy="101.344" r="2.5" fill="#2D9CDB"/>
<circle cx="58.9921" cy="101.344" r="2.5" fill="#2D9CDB"/>
<circle cx="72.9921" cy="101.344" r="2.5" fill="#2D9CDB"/>
<circle cx="86.9921" cy="101.344" r="2.5" fill="#2D9CDB"/>
<circle cx="100.992" cy="101.344" r="2.5" fill="#2D9CDB"/>
<circle cx="114.992" cy="101.344" r="2.5" fill="#2D9CDB"/>
</g>
<g clip-path="url(#clip9)">
<circle cx="2.99207" cy="115.344" r="2.5" fill="#2D9CDB"/>
<circle cx="16.9921" cy="115.344" r="2.5" fill="#2D9CDB"/>
<circle cx="30.9921" cy="115.344" r="2.5" fill="#2D9CDB"/>
<circle cx="44.9921" cy="115.344" r="2.5" fill="#2D9CDB"/>
<circle cx="58.9921" cy="115.344" r="2.5" fill="#2D9CDB"/>
<circle cx="72.9921" cy="115.344" r="2.5" fill="#2D9CDB"/>
<circle cx="86.9921" cy="115.344" r="2.5" fill="#2D9CDB"/>
<circle cx="100.992" cy="115.344" r="2.5" fill="#2D9CDB"/>
<circle cx="114.992" cy="115.344" r="2.5" fill="#2D9CDB"/>
</g>
<g clip-path="url(#clip10)">
<circle cx="2.99207" cy="129.344" r="2.5" fill="#2D9CDB"/>
<circle cx="16.9921" cy="129.344" r="2.5" fill="#2D9CDB"/>
<circle cx="30.9921" cy="129.344" r="2.5" fill="#2D9CDB"/>
<circle cx="44.9921" cy="129.344" r="2.5" fill="#2D9CDB"/>
<circle cx="58.9921" cy="129.344" r="2.5" fill="#2D9CDB"/>
<circle cx="72.9921" cy="129.344" r="2.5" fill="#2D9CDB"/>
<circle cx="86.9921" cy="129.344" r="2.5" fill="#2D9CDB"/>
<circle cx="100.992" cy="129.344" r="2.5" fill="#2D9CDB"/>
<circle cx="114.992" cy="129.344" r="2.5" fill="#2D9CDB"/>
</g>
<g clip-path="url(#clip11)">
<circle cx="2.99207" cy="143.344" r="2.5" fill="#2D9CDB"/>
<circle cx="16.9921" cy="143.344" r="2.5" fill="#2D9CDB"/>
<circle cx="30.9921" cy="143.344" r="2.5" fill="#2D9CDB"/>
<circle cx="44.9921" cy="143.344" r="2.5" fill="#2D9CDB"/>
<circle cx="58.9921" cy="143.344" r="2.5" fill="#2D9CDB"/>
<circle cx="72.9921" cy="143.344" r="2.5" fill="#2D9CDB"/>
<circle cx="86.9921" cy="143.344" r="2.5" fill="#2D9CDB"/>
<circle cx="100.992" cy="143.344" r="2.5" fill="#2D9CDB"/>
<circle cx="114.992" cy="143.344" r="2.5" fill="#2D9CDB"/>
</g>
<g clip-path="url(#clip12)">
<circle cx="2.99207" cy="157.344" r="2.5" fill="#2D9CDB"/>
<circle cx="16.9921" cy="157.344" r="2.5" fill="#2D9CDB"/>
<circle cx="30.9921" cy="157.344" r="2.5" fill="#2D9CDB"/>
<circle cx="44.9921" cy="157.344" r="2.5" fill="#2D9CDB"/>
<circle cx="58.9921" cy="157.344" r="2.5" fill="#2D9CDB"/>
<circle cx="72.9921" cy="157.344" r="2.5" fill="#2D9CDB"/>
<circle cx="86.9921" cy="157.344" r="2.5" fill="#2D9CDB"/>
<circle cx="100.992" cy="157.344" r="2.5" fill="#2D9CDB"/>
<circle cx="114.992" cy="157.344" r="2.5" fill="#2D9CDB"/>
</g>
<g clip-path="url(#clip13)">
<circle cx="2.99207" cy="171.344" r="2.5" fill="#2D9CDB"/>
<circle cx="16.9921" cy="171.344" r="2.5" fill="#2D9CDB"/>
<circle cx="30.9921" cy="171.344" r="2.5" fill="#2D9CDB"/>
<circle cx="44.9921" cy="171.344" r="2.5" fill="#2D9CDB"/>
<circle cx="58.9921" cy="171.344" r="2.5" fill="#2D9CDB"/>
<circle cx="72.9921" cy="171.344" r="2.5" fill="#2D9CDB"/>
<circle cx="86.9921" cy="171.344" r="2.5" fill="#2D9CDB"/>
<circle cx="100.992" cy="171.344" r="2.5" fill="#2D9CDB"/>
<circle cx="114.992" cy="171.344" r="2.5" fill="#2D9CDB"/>
</g>
<g clip-path="url(#clip14)">
<circle cx="2.99207" cy="185.344" r="2.5" fill="#2D9CDB"/>
<circle cx="16.9921" cy="185.344" r="2.5" fill="#2D9CDB"/>
<circle cx="30.9921" cy="185.344" r="2.5" fill="#2D9CDB"/>
<circle cx="44.9921" cy="185.344" r="2.5" fill="#2D9CDB"/>
<circle cx="58.9921" cy="185.344" r="2.5" fill="#2D9CDB"/>
<circle cx="72.9921" cy="185.344" r="2.5" fill="#2D9CDB"/>
<circle cx="86.9921" cy="185.344" r="2.5" fill="#2D9CDB"/>
<circle cx="100.992" cy="185.344" r="2.5" fill="#2D9CDB"/>
<circle cx="114.992" cy="185.344" r="2.5" fill="#2D9CDB"/>
</g>
<g clip-path="url(#clip15)">
<circle cx="2.99207" cy="199.344" r="2.5" fill="#2D9CDB"/>
<circle cx="16.9921" cy="199.344" r="2.5" fill="#2D9CDB"/>
<circle cx="30.9921" cy="199.344" r="2.5" fill="#2D9CDB"/>
<circle cx="44.9921" cy="199.344" r="2.5" fill="#2D9CDB"/>
<circle cx="58.9921" cy="199.344" r="2.5" fill="#2D9CDB"/>
<circle cx="72.9921" cy="199.344" r="2.5" fill="#2D9CDB"/>
<circle cx="86.9921" cy="199.344" r="2.5" fill="#2D9CDB"/>
<circle cx="100.992" cy="199.344" r="2.5" fill="#2D9CDB"/>
<circle cx="114.992" cy="199.344" r="2.5" fill="#2D9CDB"/>
</g>
<g clip-path="url(#clip16)">
<circle cx="2.99207" cy="213.344" r="2.5" fill="#2D9CDB"/>
<circle cx="16.9921" cy="213.344" r="2.5" fill="#2D9CDB"/>
<circle cx="30.9921" cy="213.344" r="2.5" fill="#2D9CDB"/>
<circle cx="44.9921" cy="213.344" r="2.5" fill="#2D9CDB"/>
<circle cx="58.9921" cy="213.344" r="2.5" fill="#2D9CDB"/>
<circle cx="72.9921" cy="213.344" r="2.5" fill="#2D9CDB"/>
<circle cx="86.9921" cy="213.344" r="2.5" fill="#2D9CDB"/>
<circle cx="100.992" cy="213.344" r="2.5" fill="#2D9CDB"/>
<circle cx="114.992" cy="213.344" r="2.5" fill="#2D9CDB"/>
</g>
<g clip-path="url(#clip17)">
<circle cx="2.99207" cy="227.344" r="2.5" fill="#2D9CDB"/>
<circle cx="16.9921" cy="227.344" r="2.5" fill="#2D9CDB"/>
<circle cx="30.9921" cy="227.344" r="2.5" fill="#2D9CDB"/>
<circle cx="44.9921" cy="227.344" r="2.5" fill="#2D9CDB"/>
<circle cx="58.9921" cy="227.344" r="2.5" fill="#2D9CDB"/>
<circle cx="72.9921" cy="227.344" r="2.5" fill="#2D9CDB"/>
<circle cx="86.9921" cy="227.344" r="2.5" fill="#2D9CDB"/>
<circle cx="100.992" cy="227.344" r="2.5" fill="#2D9CDB"/>
<circle cx="114.992" cy="227.344" r="2.5" fill="#2D9CDB"/>
</g>
<g clip-path="url(#clip18)">
<circle cx="2.99207" cy="241.344" r="2.5" fill="#2D9CDB"/>
<circle cx="16.9921" cy="241.344" r="2.5" fill="#2D9CDB"/>
<circle cx="30.9921" cy="241.344" r="2.5" fill="#2D9CDB"/>
<circle cx="44.9921" cy="241.344" r="2.5" fill="#2D9CDB"/>
<circle cx="58.9921" cy="241.344" r="2.5" fill="#2D9CDB"/>
<circle cx="72.9921" cy="241.344" r="2.5" fill="#2D9CDB"/>
<circle cx="86.9921" cy="241.344" r="2.5" fill="#2D9CDB"/>
<circle cx="100.992" cy="241.344" r="2.5" fill="#2D9CDB"/>
<circle cx="114.992" cy="241.344" r="2.5" fill="#2D9CDB"/>
</g>
<g clip-path="url(#clip19)">
<circle cx="2.99207" cy="255.344" r="2.5" fill="#2D9CDB"/>
<circle cx="16.9921" cy="255.344" r="2.5" fill="#2D9CDB"/>
<circle cx="30.9921" cy="255.344" r="2.5" fill="#2D9CDB"/>
<circle cx="44.9921" cy="255.344" r="2.5" fill="#2D9CDB"/>
<circle cx="58.9921" cy="255.344" r="2.5" fill="#2D9CDB"/>
<circle cx="72.9921" cy="255.344" r="2.5" fill="#2D9CDB"/>
<circle cx="86.9921" cy="255.344" r="2.5" fill="#2D9CDB"/>
<circle cx="100.992" cy="255.344" r="2.5" fill="#2D9CDB"/>
<circle cx="114.992" cy="255.344" r="2.5" fill="#2D9CDB"/>
</g>
<g clip-path="url(#clip20)">
<circle cx="2.99207" cy="269.344" r="2.5" fill="#2D9CDB"/>
<circle cx="16.9921" cy="269.344" r="2.5" fill="#2D9CDB"/>
<circle cx="30.9921" cy="269.344" r="2.5" fill="#2D9CDB"/>
<circle cx="44.9921" cy="269.344" r="2.5" fill="#2D9CDB"/>
<circle cx="58.9921" cy="269.344" r="2.5" fill="#2D9CDB"/>
<circle cx="72.9921" cy="269.344" r="2.5" fill="#2D9CDB"/>
<circle cx="86.9921" cy="269.344" r="2.5" fill="#2D9CDB"/>
<circle cx="100.992" cy="269.344" r="2.5" fill="#2D9CDB"/>
<circle cx="114.992" cy="269.344" r="2.5" fill="#2D9CDB"/>
</g>
<g clip-path="url(#clip21)">
<circle cx="2.99207" cy="283.344" r="2.5" fill="#2D9CDB"/>
<circle cx="16.9921" cy="283.344" r="2.5" fill="#2D9CDB"/>
<circle cx="30.9921" cy="283.344" r="2.5" fill="#2D9CDB"/>
<circle cx="44.9921" cy="283.344" r="2.5" fill="#2D9CDB"/>
<circle cx="58.9921" cy="283.344" r="2.5" fill="#2D9CDB"/>
<circle cx="72.9921" cy="283.344" r="2.5" fill="#2D9CDB"/>
<circle cx="86.9921" cy="283.344" r="2.5" fill="#2D9CDB"/>
<circle cx="100.992" cy="283.344" r="2.5" fill="#2D9CDB"/>
<circle cx="114.992" cy="283.344" r="2.5" fill="#2D9CDB"/>
</g>
<g clip-path="url(#clip22)">
<circle cx="2.99207" cy="297.344" r="2.5" fill="#2D9CDB"/>
<circle cx="16.9921" cy="297.344" r="2.5" fill="#2D9CDB"/>
<circle cx="30.9921" cy="297.344" r="2.5" fill="#2D9CDB"/>
<circle cx="44.9921" cy="297.344" r="2.5" fill="#2D9CDB"/>
<circle cx="58.9921" cy="297.344" r="2.5" fill="#2D9CDB"/>
<circle cx="72.9921" cy="297.344" r="2.5" fill="#2D9CDB"/>
<circle cx="86.9921" cy="297.344" r="2.5" fill="#2D9CDB"/>
<circle cx="100.992" cy="297.344" r="2.5" fill="#2D9CDB"/>
<circle cx="114.992" cy="297.344" r="2.5" fill="#2D9CDB"/>
</g>
<g clip-path="url(#clip23)">
<circle cx="2.99207" cy="311.344" r="2.5" fill="#2D9CDB"/>
<circle cx="16.9921" cy="311.344" r="2.5" fill="#2D9CDB"/>
<circle cx="30.9921" cy="311.344" r="2.5" fill="#2D9CDB"/>
<circle cx="44.9921" cy="311.344" r="2.5" fill="#2D9CDB"/>
<circle cx="58.9921" cy="311.344" r="2.5" fill="#2D9CDB"/>
<circle cx="72.9921" cy="311.344" r="2.5" fill="#2D9CDB"/>
<circle cx="86.9921" cy="311.344" r="2.5" fill="#2D9CDB"/>
<circle cx="100.992" cy="311.344" r="2.5" fill="#2D9CDB"/>
<circle cx="114.992" cy="311.344" r="2.5" fill="#2D9CDB"/>
</g>
<g clip-path="url(#clip24)">
<circle cx="2.99207" cy="325.344" r="2.5" fill="#2D9CDB"/>
<circle cx="16.9921" cy="325.344" r="2.5" fill="#2D9CDB"/>
<circle cx="30.9921" cy="325.344" r="2.5" fill="#2D9CDB"/>
<circle cx="44.9921" cy="325.344" r="2.5" fill="#2D9CDB"/>
<circle cx="58.9921" cy="325.344" r="2.5" fill="#2D9CDB"/>
<circle cx="72.9921" cy="325.344" r="2.5" fill="#2D9CDB"/>
<circle cx="86.9921" cy="325.344" r="2.5" fill="#2D9CDB"/>
<circle cx="100.992" cy="325.344" r="2.5" fill="#2D9CDB"/>
<circle cx="114.992" cy="325.344" r="2.5" fill="#2D9CDB"/>
</g>
<g clip-path="url(#clip25)">
<circle cx="2.99207" cy="339.344" r="2.5" fill="#2D9CDB"/>
<circle cx="16.9921" cy="339.344" r="2.5" fill="#2D9CDB"/>
<circle cx="30.9921" cy="339.344" r="2.5" fill="#2D9CDB"/>
<circle cx="44.9921" cy="339.344" r="2.5" fill="#2D9CDB"/>
<circle cx="58.9921" cy="339.344" r="2.5" fill="#2D9CDB"/>
<circle cx="72.9921" cy="339.344" r="2.5" fill="#2D9CDB"/>
<circle cx="86.9921" cy="339.344" r="2.5" fill="#2D9CDB"/>
<circle cx="100.992" cy="339.344" r="2.5" fill="#2D9CDB"/>
<circle cx="114.992" cy="339.344" r="2.5" fill="#2D9CDB"/>
</g>
<g clip-path="url(#clip26)">
<circle cx="2.99207" cy="353.344" r="2.5" fill="#2D9CDB"/>
<circle cx="16.9921" cy="353.344" r="2.5" fill="#2D9CDB"/>
<circle cx="30.9921" cy="353.344" r="2.5" fill="#2D9CDB"/>
<circle cx="44.9921" cy="353.344" r="2.5" fill="#2D9CDB"/>
<circle cx="58.9921" cy="353.344" r="2.5" fill="#2D9CDB"/>
<circle cx="72.9921" cy="353.344" r="2.5" fill="#2D9CDB"/>
<circle cx="86.9921" cy="353.344" r="2.5" fill="#2D9CDB"/>
<circle cx="100.992" cy="353.344" r="2.5" fill="#2D9CDB"/>
<circle cx="114.992" cy="353.344" r="2.5" fill="#2D9CDB"/>
</g>
<g clip-path="url(#clip27)">
<circle cx="2.99207" cy="367.344" r="2.5" fill="#2D9CDB"/>
<circle cx="16.9921" cy="367.344" r="2.5" fill="#2D9CDB"/>
<circle cx="30.9921" cy="367.344" r="2.5" fill="#2D9CDB"/>
<circle cx="44.9921" cy="367.344" r="2.5" fill="#2D9CDB"/>
<circle cx="58.9921" cy="367.344" r="2.5" fill="#2D9CDB"/>
<circle cx="72.9921" cy="367.344" r="2.5" fill="#2D9CDB"/>
<circle cx="86.9921" cy="367.344" r="2.5" fill="#2D9CDB"/>
<circle cx="100.992" cy="367.344" r="2.5" fill="#2D9CDB"/>
<circle cx="114.992" cy="367.344" r="2.5" fill="#2D9CDB"/>
</g>
<g clip-path="url(#clip28)">
<circle cx="2.99207" cy="381.344" r="2.5" fill="#2D9CDB"/>
<circle cx="16.9921" cy="381.344" r="2.5" fill="#2D9CDB"/>
<circle cx="30.9921" cy="381.344" r="2.5" fill="#2D9CDB"/>
<circle cx="44.9921" cy="381.344" r="2.5" fill="#2D9CDB"/>
<circle cx="58.9921" cy="381.344" r="2.5" fill="#2D9CDB"/>
<circle cx="72.9921" cy="381.344" r="2.5" fill="#2D9CDB"/>
<circle cx="86.9921" cy="381.344" r="2.5" fill="#2D9CDB"/>
<circle cx="100.992" cy="381.344" r="2.5" fill="#2D9CDB"/>
<circle cx="114.992" cy="381.344" r="2.5" fill="#2D9CDB"/>
</g>
<g clip-path="url(#clip29)">
<circle cx="2.99207" cy="395.344" r="2.5" fill="#2D9CDB"/>
<circle cx="16.9921" cy="395.344" r="2.5" fill="#2D9CDB"/>
<circle cx="30.9921" cy="395.344" r="2.5" fill="#2D9CDB"/>
<circle cx="44.9921" cy="395.344" r="2.5" fill="#2D9CDB"/>
<circle cx="58.9921" cy="395.344" r="2.5" fill="#2D9CDB"/>
<circle cx="72.9921" cy="395.344" r="2.5" fill="#2D9CDB"/>
<circle cx="86.9921" cy="395.344" r="2.5" fill="#2D9CDB"/>
<circle cx="100.992" cy="395.344" r="2.5" fill="#2D9CDB"/>
<circle cx="114.992" cy="395.344" r="2.5" fill="#2D9CDB"/>
</g>
<g clip-path="url(#clip30)">
<circle cx="2.99207" cy="409.344" r="2.5" fill="#2D9CDB"/>
<circle cx="16.9921" cy="409.344" r="2.5" fill="#2D9CDB"/>
<circle cx="30.9921" cy="409.344" r="2.5" fill="#2D9CDB"/>
<circle cx="44.9921" cy="409.344" r="2.5" fill="#2D9CDB"/>
<circle cx="58.9921" cy="409.344" r="2.5" fill="#2D9CDB"/>
<circle cx="72.9921" cy="409.344" r="2.5" fill="#2D9CDB"/>
<circle cx="86.9921" cy="409.344" r="2.5" fill="#2D9CDB"/>
<circle cx="100.992" cy="409.344" r="2.5" fill="#2D9CDB"/>
<circle cx="114.992" cy="409.344" r="2.5" fill="#2D9CDB"/>
</g>
<g clip-path="url(#clip31)">
<circle cx="2.99207" cy="423.344" r="2.5" fill="#2D9CDB"/>
<circle cx="16.9921" cy="423.344" r="2.5" fill="#2D9CDB"/>
<circle cx="30.9921" cy="423.344" r="2.5" fill="#2D9CDB"/>
<circle cx="44.9921" cy="423.344" r="2.5" fill="#2D9CDB"/>
<circle cx="58.9921" cy="423.344" r="2.5" fill="#2D9CDB"/>
<circle cx="72.9921" cy="423.344" r="2.5" fill="#2D9CDB"/>
<circle cx="86.9921" cy="423.344" r="2.5" fill="#2D9CDB"/>
<circle cx="100.992" cy="423.344" r="2.5" fill="#2D9CDB"/>
<circle cx="114.992" cy="423.344" r="2.5" fill="#2D9CDB"/>
</g>
<g clip-path="url(#clip32)">
<circle cx="2.99207" cy="437.344" r="2.5" fill="#2D9CDB"/>
<circle cx="16.9921" cy="437.344" r="2.5" fill="#2D9CDB"/>
<circle cx="30.9921" cy="437.344" r="2.5" fill="#2D9CDB"/>
<circle cx="44.9921" cy="437.344" r="2.5" fill="#2D9CDB"/>
<circle cx="58.9921" cy="437.344" r="2.5" fill="#2D9CDB"/>
<circle cx="72.9921" cy="437.344" r="2.5" fill="#2D9CDB"/>
<circle cx="86.9921" cy="437.344" r="2.5" fill="#2D9CDB"/>
<circle cx="100.992" cy="437.344" r="2.5" fill="#2D9CDB"/>
<circle cx="114.992" cy="437.344" r="2.5" fill="#2D9CDB"/>
</g>
<g clip-path="url(#clip33)">
<circle cx="2.99207" cy="451.344" r="2.5" fill="#2D9CDB"/>
<circle cx="16.9921" cy="451.344" r="2.5" fill="#2D9CDB"/>
<circle cx="30.9921" cy="451.344" r="2.5" fill="#2D9CDB"/>
<circle cx="44.9921" cy="451.344" r="2.5" fill="#2D9CDB"/>
<circle cx="58.9921" cy="451.344" r="2.5" fill="#2D9CDB"/>
<circle cx="72.9921" cy="451.344" r="2.5" fill="#2D9CDB"/>
<circle cx="86.9921" cy="451.344" r="2.5" fill="#2D9CDB"/>
<circle cx="100.992" cy="451.344" r="2.5" fill="#2D9CDB"/>
<circle cx="114.992" cy="451.344" r="2.5" fill="#2D9CDB"/>
</g>
</g>
<defs>
<clipPath id="clip0">
<rect width="118.609" height="449.097" fill="white" transform="translate(0.492065 0.84436)"/>
</clipPath>
<clipPath id="clip1">
<rect width="1000" height="14" fill="white" transform="translate(0.492065 0.84436)"/>
</clipPath>
<clipPath id="clip2">
<rect width="1000" height="14" fill="white" transform="translate(0.492065 14.8444)"/>
</clipPath>
<clipPath id="clip3">
<rect width="1000" height="14" fill="white" transform="translate(0.492065 28.8444)"/>
</clipPath>
<clipPath id="clip4">
<rect width="1000" height="14" fill="white" transform="translate(0.492065 42.8444)"/>
</clipPath>
<clipPath id="clip5">
<rect width="1000" height="14" fill="white" transform="translate(0.492065 56.8444)"/>
</clipPath>
<clipPath id="clip6">
<rect width="1000" height="14" fill="white" transform="translate(0.492065 70.8444)"/>
</clipPath>
<clipPath id="clip7">
<rect width="1000" height="14" fill="white" transform="translate(0.492065 84.8444)"/>
</clipPath>
<clipPath id="clip8">
<rect width="1000" height="14" fill="white" transform="translate(0.492065 98.8444)"/>
</clipPath>
<clipPath id="clip9">
<rect width="1000" height="14" fill="white" transform="translate(0.492065 112.844)"/>
</clipPath>
<clipPath id="clip10">
<rect width="1000" height="14" fill="white" transform="translate(0.492065 126.844)"/>
</clipPath>
<clipPath id="clip11">
<rect width="1000" height="14" fill="white" transform="translate(0.492065 140.844)"/>
</clipPath>
<clipPath id="clip12">
<rect width="1000" height="14" fill="white" transform="translate(0.492065 154.844)"/>
</clipPath>
<clipPath id="clip13">
<rect width="1000" height="14" fill="white" transform="translate(0.492065 168.844)"/>
</clipPath>
<clipPath id="clip14">
<rect width="1000" height="14" fill="white" transform="translate(0.492065 182.844)"/>
</clipPath>
<clipPath id="clip15">
<rect width="1000" height="14" fill="white" transform="translate(0.492065 196.844)"/>
</clipPath>
<clipPath id="clip16">
<rect width="1000" height="14" fill="white" transform="translate(0.492065 210.844)"/>
</clipPath>
<clipPath id="clip17">
<rect width="1000" height="14" fill="white" transform="translate(0.492065 224.844)"/>
</clipPath>
<clipPath id="clip18">
<rect width="1000" height="14" fill="white" transform="translate(0.492065 238.844)"/>
</clipPath>
<clipPath id="clip19">
<rect width="1000" height="14" fill="white" transform="translate(0.492065 252.844)"/>
</clipPath>
<clipPath id="clip20">
<rect width="1000" height="14" fill="white" transform="translate(0.492065 266.844)"/>
</clipPath>
<clipPath id="clip21">
<rect width="1000" height="14" fill="white" transform="translate(0.492065 280.844)"/>
</clipPath>
<clipPath id="clip22">
<rect width="1000" height="14" fill="white" transform="translate(0.492065 294.844)"/>
</clipPath>
<clipPath id="clip23">
<rect width="1000" height="14" fill="white" transform="translate(0.492065 308.844)"/>
</clipPath>
<clipPath id="clip24">
<rect width="1000" height="14" fill="white" transform="translate(0.492065 322.844)"/>
</clipPath>
<clipPath id="clip25">
<rect width="1000" height="14" fill="white" transform="translate(0.492065 336.844)"/>
</clipPath>
<clipPath id="clip26">
<rect width="1000" height="14" fill="white" transform="translate(0.492065 350.844)"/>
</clipPath>
<clipPath id="clip27">
<rect width="1000" height="14" fill="white" transform="translate(0.492065 364.844)"/>
</clipPath>
<clipPath id="clip28">
<rect width="1000" height="14" fill="white" transform="translate(0.492065 378.844)"/>
</clipPath>
<clipPath id="clip29">
<rect width="1000" height="14" fill="white" transform="translate(0.492065 392.844)"/>
</clipPath>
<clipPath id="clip30">
<rect width="1000" height="14" fill="white" transform="translate(0.492065 406.844)"/>
</clipPath>
<clipPath id="clip31">
<rect width="1000" height="14" fill="white" transform="translate(0.492065 420.844)"/>
</clipPath>
<clipPath id="clip32">
<rect width="1000" height="14" fill="white" transform="translate(0.492065 434.844)"/>
</clipPath>
<clipPath id="clip33">
<rect width="1000" height="14" fill="white" transform="translate(0.492065 448.844)"/>
</clipPath>
</defs>
</svg>
