<svg width="96" height="96" viewBox="0 0 96 96" fill="none" xmlns="http://www.w3.org/2000/svg">
<path d="M12.9778 24.3083C15.4874 22.5543 19.2705 22.8907 21.5238 24.7515L18.9395 20.9951C16.8597 18.029 17.6046 14.8199 20.5734 12.7375C23.5422 10.6631 31.9546 16.2403 31.9546 16.2403C29.8562 13.2448 30.2486 9.44833 33.2441 7.34721C36.2396 5.2541 40.3725 5.97761 42.4709 8.97844L70.29 48.2776L66.7446 82.6511L37.1554 71.8598L11.3466 33.5938C9.22946 30.5796 9.96098 26.4228 12.9778 24.3083Z" fill="#90603E"/>
<path d="M7.19515 46.1712C7.19515 46.1712 4.17296 41.766 8.58077 38.7465C12.9832 35.727 16.0028 40.1294 16.0028 40.1294L30.0218 60.5746C30.505 59.7684 31.0336 58.9728 31.6237 58.1879L12.1663 29.8161C12.1663 29.8161 9.14676 25.4136 13.5519 22.3941C17.9544 19.3746 20.9739 23.777 20.9739 23.777L39.2753 50.4668C39.956 49.9115 40.6529 49.3535 41.371 48.8062L20.1543 17.8608C20.1543 17.8608 17.1348 13.4583 21.5399 10.4388C25.9424 7.41929 28.9619 11.8218 28.9619 11.8218L50.1786 42.7619C50.9582 42.284 51.7298 41.8701 52.504 41.4323L32.6729 12.5132C32.6729 12.5132 29.6534 8.11076 34.0558 5.09124C38.4583 2.07172 41.4778 6.47419 41.4778 6.47419L62.4463 37.0539L65.634 41.7046C52.4239 50.7659 51.1665 67.8124 58.7139 78.8199C60.2224 81.0225 62.4249 79.5141 62.4249 79.5141C53.3664 66.3013 56.1323 51.4547 69.345 42.3961L65.4498 22.9014C65.4498 22.9014 63.9948 17.7647 69.1287 16.307C74.2654 14.852 75.7231 19.9886 75.7231 19.9886L80.2217 33.3482C82.0051 38.6451 83.9033 43.9232 86.4156 48.9157C93.5092 63.0121 89.2723 80.5313 75.8966 89.7073C61.3063 99.711 41.3604 95.992 31.354 81.4043L7.19515 46.1712Z" fill="#AF7E57"/>
<path d="M32.0374 85.433C21.3583 85.433 10.567 74.6418 10.567 63.9626C10.567 62.4862 9.48578 61.2928 8.00939 61.2928C6.533 61.2928 5.22748 62.4862 5.22748 63.9626C5.22748 79.9813 16.0187 90.7726 32.0374 90.7726C33.5138 90.7726 34.7072 89.467 34.7072 87.9907C34.7072 86.5143 33.5138 85.433 32.0374 85.433Z" fill="#5DADEC"/>
<path d="M18.6885 90.6604C10.6791 90.6604 5.33956 85.3209 5.33956 77.3115C5.33956 75.8351 4.14617 74.6417 2.66978 74.6417C1.19339 74.6417 0 75.8351 0 77.3115C0 87.9906 8.00934 96 18.6885 96C20.1649 96 21.3582 94.8066 21.3582 93.3302C21.3582 91.8538 20.1649 90.6604 18.6885 90.6604ZM64.0748 5.22742C62.601 5.22742 61.405 6.42348 61.405 7.8972C61.405 9.37092 62.601 10.567 64.0748 10.567C74.7539 10.567 85.433 20.1488 85.433 31.9252C85.433 33.3989 86.6291 34.595 88.1028 34.595C89.5765 34.595 90.7726 33.3989 90.7726 31.9252C90.7726 17.2041 80.0934 5.22742 64.0748 5.22742Z" fill="#5DADEC"/>
<path d="M77.4237 0C75.9499 0 74.7539 1.08393 74.7539 2.55765C74.7539 4.03137 75.9499 5.33956 77.4237 5.33956C85.433 5.33956 90.6604 11.2798 90.6604 18.5763C90.6604 20.0501 91.966 21.2461 93.4423 21.2461C94.9187 21.2461 96 20.0501 96 18.5763C96 8.33239 88.1028 0 77.4237 0Z" fill="#5DADEC"/>
</svg>
