<svg width="36" height="37" viewBox="0 0 36 37" fill="none" xmlns="http://www.w3.org/2000/svg">
<path d="M18.986 35.4999H17.016C10.516 35.4999 4.21301 30.5179 4.21301 23.5439C4.21301 19.5589 5.69001 17.5659 5.69001 17.5659C5.69001 17.5659 5.19801 15.5729 5.19801 13.5809C5.19801 7.60291 11.501 2.62091 18.001 2.62091C24.501 2.62091 30.804 8.59891 30.804 13.5809C30.804 15.5739 30.312 17.5659 30.312 17.5659C30.312 17.5659 31.789 19.5589 31.789 23.5439C31.789 30.5179 25.486 35.4999 18.986 35.4999Z" fill="#BF6952"/>
<path d="M29.668 15.8789C29.668 12.0719 26.581 8.98486 22.774 8.98486C20.92 8.98486 19.24 9.72086 18.001 10.9109C16.762 9.71986 15.082 8.98486 13.228 8.98486C9.42105 8.98486 6.33405 12.0719 6.33405 15.8789C6.33405 18.1879 7.47405 20.2269 9.21605 21.4779C8.72705 22.6899 8.45505 24.0239 8.45505 25.4239C8.45505 30.9889 12.729 34.4389 18 34.4389C23.271 34.4389 27.545 30.9889 27.545 25.4239C27.545 24.0229 27.273 22.6899 26.784 21.4779C28.528 20.2269 29.668 18.1879 29.668 15.8789Z" fill="#D79E84"/>
<path d="M13.001 20.4999C14.1056 20.4999 15.001 19.1567 15.001 17.4999C15.001 15.843 14.1056 14.4999 13.001 14.4999C11.8965 14.4999 11.001 15.843 11.001 17.4999C11.001 19.1567 11.8965 20.4999 13.001 20.4999Z" fill="#292F33"/>
<path d="M23.001 20.4999C24.1056 20.4999 25.001 19.1567 25.001 17.4999C25.001 15.843 24.1056 14.4999 23.001 14.4999C21.8965 14.4999 21.001 15.843 21.001 17.4999C21.001 19.1567 21.8965 20.4999 23.001 20.4999Z" fill="#292F33"/>
<path d="M18.001 31.9999C20.716 31.9999 23.028 30.6199 23.896 28.6909C24.255 27.8929 23.646 26.9999 22.739 26.9999H13.263C12.356 26.9999 11.747 27.8929 12.106 28.6909C12.974 30.6199 15.286 31.9999 18.001 31.9999Z" fill="#642116"/>
<path d="M16.501 23.5609C17.0533 23.5609 17.501 23.0859 17.501 22.4999C17.501 21.9139 17.0533 21.4389 16.501 21.4389C15.9488 21.4389 15.501 21.9139 15.501 22.4999C15.501 23.0859 15.9488 23.5609 16.501 23.5609Z" fill="#642116"/>
<path d="M19.501 23.4999C20.0533 23.4999 20.501 23.0522 20.501 22.4999C20.501 21.9476 20.0533 21.4999 19.501 21.4999C18.9488 21.4999 18.501 21.9476 18.501 22.4999C18.501 23.0522 18.9488 23.4999 19.501 23.4999Z" fill="#642116"/>
<path d="M22.243 0.669885C22.243 0.669885 16.94 -0.391115 14.819 2.79088C12.698 5.97289 19.061 3.85189 19.061 3.85189C19.061 3.85189 20.122 0.669885 22.243 0.669885Z" fill="#BF6952"/>
<path d="M9.00104 32.4969C9.12604 33.1559 10.782 33.9059 10.782 33.9059L10.001 19.4959L8.00104 24.4999C8.00104 24.4999 8.87604 31.8369 9.00104 32.4969ZM27.001 32.4969C26.813 33.2189 25.251 33.8749 25.251 33.8749L26.002 19.4959L28.001 24.4999C28.001 24.4999 27.189 31.7749 27.001 32.4969Z" fill="#9B3C07"/>
<path d="M2.00104 36.4999H10.001L8.98904 20.6669L4.99204 16.4989L2.00104 36.4999ZM34.001 36.4999H26.001L27.003 20.6669L31 16.4989L34.001 36.4999Z" fill="#BF6952"/>
<path d="M30.609 15.5529C30.609 15.5529 30.809 13.0769 31.806 12.0109C33.108 10.6179 34.676 11.6969 34.555 13.6509C34.115 20.7369 32.559 22.6839 30.537 23.8469C28.516 25.0109 25.748 24.7929 22.819 21.9749C19.89 19.1569 18.661 17.4209 18.311 16.1779C17.961 14.9339 19.267 13.9239 20.381 14.5569C21.383 15.1259 22.891 16.8649 22.891 16.8649C22.891 16.8649 20.944 14.1689 20.668 13.1269C20.286 11.6859 21.99 10.8259 22.915 11.6199C23.827 12.4029 25.707 14.7759 25.707 14.7759C25.707 14.7759 24.101 12.3119 23.953 11.1249C23.807 9.95287 25.192 8.91687 26.416 9.93887C27.639 10.9619 29.605 13.9099 30.609 15.5529ZM5.39302 15.5529C5.39302 15.5529 5.19302 13.0769 4.19602 12.0109C2.89402 10.6179 1.32602 11.6969 1.44702 13.6509C1.88702 20.7369 3.44302 22.6839 5.46502 23.8469C7.48602 25.0109 10.254 24.7929 13.183 21.9749C16.112 19.1569 17.341 17.4209 17.691 16.1779C18.041 14.9339 16.735 13.9239 15.621 14.5569C14.619 15.1259 13.111 16.8649 13.111 16.8649C13.111 16.8649 15.058 14.1689 15.334 13.1269C15.716 11.6859 14.012 10.8259 13.087 11.6199C12.175 12.4029 10.295 14.7759 10.295 14.7759C10.295 14.7759 11.901 12.3119 12.049 11.1249C12.195 9.95287 10.81 8.91687 9.58602 9.93887C8.36202 10.9609 6.39702 13.9099 5.39302 15.5529Z" fill="#D79E84"/>
<path d="M28.083 25.0119C26.253 25.0119 24.309 24.1029 22.472 22.3359C19.677 19.6479 18.245 17.7899 17.83 16.3139C17.613 15.5429 17.864 14.7599 18.486 14.2729C19.078 13.8089 19.848 13.7329 20.522 14.0659C20.365 13.7579 20.244 13.4779 20.185 13.2559C19.959 12.4049 20.275 11.5899 21.008 11.1299C21.734 10.6739 22.631 10.7179 23.241 11.2419C23.325 11.3149 23.417 11.3989 23.513 11.4929C23.487 11.3859 23.467 11.2839 23.455 11.1879C23.358 10.4119 23.762 9.6349 24.459 9.2539C25.186 8.8579 26.036 8.9729 26.734 9.5559C27.854 10.4919 29.416 12.7669 30.324 14.1669C30.511 13.3329 30.847 12.3029 31.439 11.6689C32.12 10.9399 32.975 10.6969 33.731 11.0219C34.61 11.4009 35.129 12.4449 35.052 13.6809C34.616 20.7119 33.096 22.9499 30.784 24.2809C29.937 24.7709 29.024 25.0119 28.083 25.0119ZM19.661 14.8619C19.464 14.8619 19.27 14.9279 19.102 15.0599C18.801 15.2959 18.685 15.6629 18.791 16.0429C19.146 17.3029 20.576 19.1259 23.164 21.6149C25.638 23.9929 28.166 24.6319 30.287 23.4139C31.945 22.4589 33.602 20.9159 34.055 13.6199C34.112 12.6989 33.735 12.1129 33.335 11.9409C32.98 11.7849 32.564 11.9329 32.17 12.3529C31.453 13.1209 31.159 14.9529 31.107 15.5939C31.089 15.8099 30.935 15.9899 30.724 16.0399C30.514 16.0909 30.295 15.9979 30.182 15.8139C29.219 14.2389 27.275 11.3099 26.094 10.3239C25.574 9.88991 25.147 10.0169 24.939 10.1319C24.598 10.3179 24.401 10.6919 24.448 11.0639C24.558 11.9439 25.696 13.8449 26.126 14.5039C26.272 14.7279 26.216 15.0259 25.999 15.1829C25.784 15.3389 25.481 15.2979 25.315 15.0879C25.296 15.0649 23.454 12.7429 22.588 12.0009C22.275 11.7309 21.823 11.7989 21.538 11.9769C21.368 12.0839 20.99 12.3969 21.15 12.9999C21.357 13.7809 22.768 15.8449 23.295 16.5739C23.451 16.7909 23.41 17.0929 23.2 17.2589C22.991 17.4229 22.687 17.3969 22.512 17.1949C22.109 16.7289 20.894 15.4249 20.134 14.9939C19.981 14.9049 19.82 14.8619 19.661 14.8619Z" fill="#BF6952"/>
<path d="M7.91902 25.0119C6.97702 25.0119 6.06502 24.7709 5.21502 24.2819C2.90402 22.9509 1.38402 20.7139 0.948016 13.6819C0.871016 12.4459 1.39002 11.4019 2.27002 11.0229C3.02002 10.6989 3.87902 10.9399 4.56102 11.6699C5.15302 12.3029 5.49002 13.3329 5.67702 14.1679C6.58502 12.7689 8.14502 10.4939 9.26702 9.5569C9.96602 8.9719 10.816 8.8579 11.541 9.2549C12.239 9.6349 12.643 10.4129 12.545 11.1889C12.533 11.2849 12.513 11.3869 12.487 11.4939C12.584 11.3999 12.675 11.3149 12.76 11.2429C13.368 10.7209 14.267 10.6759 14.992 11.1309C15.726 11.5909 16.042 12.4059 15.817 13.2569C15.758 13.4789 15.637 13.7589 15.481 14.0679C16.153 13.7359 16.924 13.8109 17.515 14.2749C18.138 14.7619 18.389 15.5449 18.172 16.3159C17.756 17.7939 16.324 19.6509 13.529 22.3379C11.693 24.1029 9.74902 25.0119 7.91902 25.0119ZM2.95502 11.8809C2.85502 11.8809 2.75902 11.9009 2.66502 11.9409C2.26602 12.1129 1.88902 12.6989 1.94602 13.6199C2.39902 20.9159 4.05602 22.4589 5.71402 23.4139C7.83502 24.6349 10.362 23.9949 12.836 21.6149C15.424 19.1269 16.854 17.3039 17.209 16.0429C17.316 15.6629 17.2 15.2949 16.899 15.0599C16.596 14.8219 16.21 14.7959 15.867 14.9919C15.106 15.4249 13.892 16.7269 13.488 17.1929C13.312 17.3949 13.008 17.4219 12.8 17.2569C12.591 17.0909 12.549 16.7889 12.705 16.5719C13.231 15.8429 14.643 13.7789 14.851 12.9979C15.011 12.3949 14.632 12.0819 14.462 11.9749C14.178 11.7959 13.728 11.7269 13.413 11.9989C12.548 12.7419 10.706 15.0629 10.688 15.0859C10.522 15.2939 10.221 15.3369 10.004 15.1809C9.78702 15.0249 9.73102 14.7259 9.87702 14.5019C10.306 13.8429 11.445 11.9409 11.554 11.0619C11.6 10.6899 11.403 10.3159 11.063 10.1299C10.855 10.0169 10.427 9.8889 9.90902 10.3219C8.87902 11.1819 7.06802 13.7709 5.82002 15.8119C5.70702 15.9969 5.49102 16.0899 5.27802 16.0379C5.06802 15.9879 4.91302 15.8079 4.89502 15.5919C4.84302 14.9509 4.54902 13.1189 3.83202 12.3509C3.54002 12.0419 3.23802 11.8809 2.95502 11.8809Z" fill="#BF6952"/>
<path d="M25.989 10.2579C26.025 10.2839 26.058 10.2929 26.095 10.3239C27.276 11.3099 29.22 14.2389 30.183 15.8139C30.273 15.9599 30.432 16.0239 30.597 16.0289C30.813 14.9769 30.87 13.7459 30.863 12.5739C30.616 13.0919 30.438 13.6609 30.325 14.1669C29.417 12.7669 27.855 10.4919 26.735 9.55588C26.069 8.99888 25.267 8.88388 24.564 9.21588C25.236 9.44188 25.684 9.83088 25.989 10.2579ZM5.81903 15.8139C7.06703 13.7719 8.87803 11.1839 9.90803 10.3239C9.97703 10.2659 10.039 10.2419 10.104 10.2029C10.403 9.80288 10.835 9.44388 11.463 9.22688C10.755 8.87788 9.94103 8.99188 9.26603 9.55688C8.14403 10.4939 6.58303 12.7689 5.67603 14.1679C5.57003 13.6959 5.40903 13.1669 5.18803 12.6779C5.18503 13.8189 5.24503 15.0059 5.45303 16.0269C5.60103 16.0069 5.73903 15.9449 5.81903 15.8139Z" fill="#9B3C07"/>
</svg>
