<svg width="40" height="40" viewBox="0 0 40 40" fill="none" xmlns="http://www.w3.org/2000/svg">
<path d="M7.5 12.5C7.5 9.18479 8.81696 6.00537 11.1612 3.66117C13.5054 1.31696 16.6848 0 20 0C23.3152 0 26.4946 1.31696 28.8388 3.66117C31.183 6.00537 32.5 9.18479 32.5 12.5V27.5C32.5 30.8152 31.183 33.9946 28.8388 36.3388C26.4946 38.683 23.3152 40 20 40C16.6848 40 13.5054 38.683 11.1612 36.3388C8.81696 33.9946 7.5 30.8152 7.5 27.5V12.5ZM21.25 8.75C21.25 8.41848 21.1183 8.10054 20.8839 7.86612C20.6495 7.6317 20.3315 7.5 20 7.5C19.6685 7.5 19.3505 7.6317 19.1161 7.86612C18.8817 8.10054 18.75 8.41848 18.75 8.75V13.75C18.75 14.0815 18.8817 14.3995 19.1161 14.6339C19.3505 14.8683 19.6685 15 20 15C20.3315 15 20.6495 14.8683 20.8839 14.6339C21.1183 14.3995 21.25 14.0815 21.25 13.75V8.75Z" fill="#2D9CDB"/>
</svg>
