<svg width="51" height="49" viewBox="0 0 51 49" fill="none" xmlns="http://www.w3.org/2000/svg">
<path d="M49.5152 22.1138L36.3016 17.2228L31.3674 1.05127C31.1773 0.427636 30.5997 0 29.9479 0C29.296 0 28.7184 0.427636 28.5284 1.05127L23.5957 17.2228L10.3806 22.1138C9.79701 22.3306 9.41095 22.8845 9.41095 23.5066C9.41095 24.1273 9.79701 24.6841 10.3806 24.8994L23.5883 29.789L28.5239 46.4535C28.711 47.0831 29.2901 47.5152 29.9479 47.5152C30.6042 47.5152 31.1848 47.0831 31.3719 46.452L36.3075 29.7875L49.5167 24.8979C50.0973 24.6841 50.4848 24.1288 50.4848 23.5066C50.4848 22.886 50.0973 22.3306 49.5152 22.1138Z" fill="#FFAC33"/>
<path d="M19.8183 38.4487L16.3823 37.1777L15.046 32.2777C14.8708 31.6303 14.2842 31.1818 13.6146 31.1818C12.9449 31.1818 12.3584 31.6303 12.1817 32.2762L10.8453 37.1762L7.41088 38.4472C6.82733 38.6625 6.44127 39.2193 6.44127 39.84C6.44127 40.4607 6.82733 41.0175 7.41088 41.2328L10.8275 42.4993L12.1743 47.8775C12.3406 48.5367 12.933 49 13.6146 49C14.2961 49 14.8886 48.5367 15.0549 47.876L16.4016 42.4979L19.8183 41.2313C20.4018 41.0175 20.7879 40.4607 20.7879 39.84C20.7879 39.2193 20.4018 38.6625 19.8183 38.4487ZM13.377 6.28241L9.86682 4.98316L8.56609 1.4715C8.35079 0.887953 7.79546 0.501892 7.1733 0.501892C6.55264 0.501892 5.9973 0.887953 5.78052 1.4715L4.48127 4.98316L0.969606 6.28241C0.386061 6.4992 0 7.05453 0 7.6752C0 8.29586 0.386061 8.85268 0.969606 9.06798L4.48127 10.3672L5.78052 13.8789C5.9973 14.4624 6.55264 14.8485 7.1733 14.8485C7.79397 14.8485 8.3493 14.4624 8.56609 13.8789L9.86534 10.3672L13.377 9.06798C13.9605 8.8512 14.3466 8.29586 14.3466 7.6752C14.3466 7.05453 13.9605 6.4992 13.377 6.28241Z" fill="#FFCC4D"/>
</svg>
