<svg width="1224" height="238" viewBox="0 0 1224 238" fill="none" xmlns="http://www.w3.org/2000/svg">
<path fill-rule="evenodd" clip-rule="evenodd" d="M0 0H40.8C81.6 0 163.2 0 244.8 30.6667C326.4 61.3333 408 122.667 489.6 158.444C571.2 194.222 652.8 204.444 734.4 189.111C816 173.778 897.6 132.889 979.2 112.444C1060.8 92 1142.4 92 1183.2 92H1224V276H1183.2C1142.4 276 1060.8 276 979.2 276C897.6 276 816 276 734.4 276C652.8 276 571.2 276 489.6 276C408 276 326.4 276 244.8 276C163.2 276 81.6 276 40.8 276H0V0Z" fill="#0099FF"/>
</svg>
